<svg width="105" height="104" viewBox="0 0 105 104" fill="none" xmlns="http://www.w3.org/2000/svg">
<path d="M84.199 52.2618V5C84.199 3.34315 82.8558 2 81.199 2H24.3717C22.7149 2 21.3717 3.34315 21.3717 5V8.28272M21.3717 45.9791V92.5759M84.199 92.5759V99C84.199 100.657 82.8558 102 81.199 102H24.3717C22.7149 102 21.3717 100.657 21.3717 99V92.5759M35.5079 36.555H45.5969C47.2537 36.555 48.5969 35.2118 48.5969 33.555V21.3717M58.5445 83.1518V71.4921C58.5445 69.8353 59.8877 68.4921 61.5445 68.4921H65.3508M21.3717 92.5759H65.3508M2 29.2251V34.6021C2 36.2589 3.34314 37.6021 5 37.6021H26.7487C28.4055 37.6021 29.7487 36.2589 29.7487 34.6021V15.089M2 29.2251V11.2827C2 9.62587 3.34315 8.28272 5 8.28272H26.7487C28.4055 8.28272 29.7487 9.62587 29.7487 11.2827V15.089M2 29.2251L10.9005 21.3717L17.1832 27.1309L29.7487 15.089M65.3508 12.9948H29.7487M82.1047 69.5393L95.1937 76.8691L82.1047 84.199V69.5393ZM61.5445 45.4555H69.6806C71.3375 45.4555 72.6806 46.7986 72.6806 48.4555V57.1152C72.6806 58.772 71.3375 60.1152 69.6806 60.1152H61.5445C59.8876 60.1152 58.5445 58.772 58.5445 57.1152V48.4555C58.5445 46.7986 59.8877 45.4555 61.5445 45.4555ZM38.5079 83.1518H46.644C48.3008 83.1518 49.644 81.8087 49.644 80.1518V71.4921C49.644 69.8353 48.3008 68.4921 46.644 68.4921H38.5079C36.851 68.4921 35.5079 69.8353 35.5079 71.4921V80.1518C35.5079 81.8087 36.851 83.1518 38.5079 83.1518ZM38.5079 60.1152H46.644C48.3008 60.1152 49.644 58.772 49.644 57.1152V48.4555C49.644 46.7986 48.3008 45.4555 46.644 45.4555H38.5079C36.851 45.4555 35.5079 46.7986 35.5079 48.4555V57.1152C35.5079 58.772 36.851 60.1152 38.5079 60.1152ZM61.5445 36.555H69.6806C71.3375 36.555 72.6806 35.2118 72.6806 33.555V24.3717C72.6806 22.7149 71.3375 21.3717 69.6806 21.3717H61.5445C59.8877 21.3717 58.5445 22.7149 58.5445 24.3717V33.555C58.5445 35.2118 59.8876 36.555 61.5445 36.555ZM103.047 89.5759V64.6859C103.047 63.029 101.704 61.6859 100.047 61.6859H75.6806C74.0238 61.6859 72.6806 63.029 72.6806 64.6859V89.5759C72.6806 91.2328 74.0238 92.5759 75.6806 92.5759H100.047C101.704 92.5759 103.047 91.2328 103.047 89.5759Z" stroke="#1B3CC8" stroke-width="3" stroke-linecap="round" stroke-linejoin="round"/>
</svg>
