<svg width="59" height="104" viewBox="0 0 59 104" fill="none" xmlns="http://www.w3.org/2000/svg">
<path d="M22.2358 6.12371H29.5M34.6887 6.12371H36.7641M14.9717 2H6.99999C4.23857 2 2 4.23858 2 7V97C2 99.7614 4.23858 102 7 102H52C54.7614 102 57 99.7614 57 97V7C57 4.23858 54.7614 2 52 2H44.0283M14.9717 2V7.24742C14.9717 8.90428 16.3148 10.2474 17.9717 10.2474H41.0283C42.6852 10.2474 44.0283 8.90428 44.0283 7.24742V2M14.9717 2H44.0283M11.9701 56.524C11.2965 52.7285 11.8496 48.8185 13.5503 45.3545C15.2509 41.8905 18.0118 39.0503 21.4372 37.2409C24.8626 35.4316 28.7767 34.7459 32.6185 35.2823C36.4602 35.8187 40.0324 37.5496 42.8231 40.2268M42.8231 40.2268L42.0448 35.2823M42.8231 40.2268L37.7641 41M47.2312 49.476C47.9049 53.2715 47.3518 57.1815 45.6511 60.6455C43.9504 64.1095 41.1896 66.9497 37.7642 68.7591C34.3387 70.5684 30.4247 71.2541 26.5829 70.7177C22.7412 70.1813 19.169 68.4505 16.3783 65.7732M16.3783 65.7732L17.1566 70.7177M16.3783 65.7732L21.4372 65" stroke="#1B3CC8" stroke-width="3" stroke-linecap="round" stroke-linejoin="round"/>
</svg>
