<?xml version="1.0" encoding="UTF-8" standalone="no"?>
<svg
   xmlns:dc="http://purl.org/dc/elements/1.1/"
   xmlns:cc="http://creativecommons.org/ns#"
   xmlns:rdf="http://www.w3.org/1999/02/22-rdf-syntax-ns#"
   xmlns:svg="http://www.w3.org/2000/svg"
   xmlns="http://www.w3.org/2000/svg"
   id="svg8"
   version="1.1"
   viewBox="0 0 642.91365 310.85368"
   height="1174.88"
   width="2429.9099">
  <defs
     id="defs2" />
  <path
     id="first-spline"
     d="M 200.90533,1.0001207 C 119.11701,3.8163067 56.023186,31.039442 29.383567,72.343507 3.7605427,112.07137 -17.525196,162.76603 26.112034,216.43837 c 41.595196,51.1607 97.204936,52.53123 128.991846,53.03818 40.40934,0.64446 94.38022,-16.92938 142.07796,-15.9584 69.16956,1.4081 115.90573,57.26245 182.27109,56.32373 51.88045,-0.73384 96.27652,-19.24394 121.98144,-39.89597 24.7735,-19.90372 42.99725,-60.54801 40.19309,-100.91335 C 638.8233,128.66722 625.2698,81.730795 587.4135,51.222109 549.55718,20.713424 501.35421,1.8913637 466.36679,3.3469427 423.34297,5.13686 385.51321,5.693764 335.97288,3.3469427 285.59496,0.96044371 200.90533,1.0001207 200.90533,1.0001207 Z"
     style="fill:none;stroke:#ff0000;stroke-width:2.00014973px;stroke-linecap:butt;stroke-linejoin:miter;stroke-opacity:1" />
  <metadata
     id="metadata5">
    <rdf:RDF>
      <cc:Work
         rdf:about="">
        <dc:format>image/svg+xml</dc:format>
        <dc:type
           rdf:resource="http://purl.org/dc/dcmitype/StillImage" />
        <dc:title></dc:title>
      </cc:Work>
    </rdf:RDF>
  </metadata>
</svg>
