<?xml version="1.0" encoding="UTF-8" standalone="no"?>
<svg
   xmlns:dc="http://purl.org/dc/elements/1.1/"
   xmlns:cc="http://creativecommons.org/ns#"
   xmlns:rdf="http://www.w3.org/1999/02/22-rdf-syntax-ns#"
   xmlns:svg="http://www.w3.org/2000/svg"
   xmlns="http://www.w3.org/2000/svg"
   id="svg8"
   version="1.1"
   viewBox="0 0 642.91365 310.85368"
   height="1174.88"
   width="2429.9099">
  <defs
     id="defs2" />
  <metadata
     id="metadata5">
    <rdf:RDF>
      <cc:Work
         rdf:about="">
        <dc:format>image/svg+xml</dc:format>
        <dc:type
           rdf:resource="http://purl.org/dc/dcmitype/StillImage" />
        <dc:title></dc:title>
      </cc:Work>
    </rdf:RDF>
  </metadata>
  <g
     transform="translate(0,13.853683)"
     id="layer1">
    <path
       id="path3724"
       d="M 200.90533,-12.853561 C 119.11701,-10.037375 56.023186,17.18576 29.383567,58.489825 3.7605427,98.217684 -17.525196,148.91235 26.112034,202.58469 c 41.595196,51.1607 97.204936,52.53123 128.991846,53.03818 40.40934,0.64446 94.38022,-16.92938 142.07796,-15.9584 69.16956,1.4081 115.90573,57.26245 182.27109,56.32373 51.88045,-0.73384 96.27652,-19.24394 121.98144,-39.89597 24.7735,-19.90372 42.99725,-60.54801 40.19309,-100.91335 C 638.8233,114.81354 625.2698,67.877113 587.4135,37.368427 549.55718,6.8597423 501.35421,-11.962318 466.36679,-10.506739 c -43.02382,1.7899173 -80.85358,2.3468213 -130.39391,0 -50.37792,-2.386499 -135.06755,-2.346822 -135.06755,-2.346822 z"
       style="fill:none;stroke:#ff0000;stroke-width:2.00014973px;stroke-linecap:butt;stroke-linejoin:miter;stroke-opacity:1" />
  </g>
</svg>
