<?xml version="1.0" encoding="UTF-8" standalone="no"?>
<!-- Created with Inkscape (http://www.inkscape.org/) -->

<svg
   xmlns:dc="http://purl.org/dc/elements/1.1/"
   xmlns:cc="http://creativecommons.org/ns#"
   xmlns:rdf="http://www.w3.org/1999/02/22-rdf-syntax-ns#"
   xmlns:svg="http://www.w3.org/2000/svg"
   xmlns="http://www.w3.org/2000/svg"
   xmlns:sodipodi="http://sodipodi.sourceforge.net/DTD/sodipodi-0.dtd"
   xmlns:inkscape="http://www.inkscape.org/namespaces/inkscape"
   width="2429.9099"
   height="1174.88"
   viewBox="0 0 642.91365 310.85368"
   version="1.1"
   id="svg8"
   inkscape:version="0.92.4 (5da689c313, 2019-01-14)"
   sodipodi:docname="drawing-vector01.svg">
  <defs
     id="defs2" />
  <sodipodi:namedview
     id="base"
     pagecolor="#ffffff"
     bordercolor="#666666"
     borderopacity="1.0"
     inkscape:pageopacity="0.0"
     inkscape:pageshadow="2"
     inkscape:zoom="0.56495434"
     inkscape:cx="1542.0731"
     inkscape:cy="571.42857"
     inkscape:document-units="mm"
     inkscape:current-layer="layer1"
     showgrid="false"
     units="px"
     inkscape:window-width="1920"
     inkscape:window-height="1018"
     inkscape:window-x="-8"
     inkscape:window-y="-8"
     inkscape:window-maximized="1" />
  <metadata
     id="metadata5">
    <rdf:RDF>
      <cc:Work
         rdf:about="">
        <dc:format>image/svg+xml</dc:format>
        <dc:type
           rdf:resource="http://purl.org/dc/dcmitype/StillImage" />
        <dc:title></dc:title>
      </cc:Work>
    </rdf:RDF>
  </metadata>
  <g
     inkscape:label="Layer 1"
     inkscape:groupmode="layer"
     id="layer1"
     transform="translate(0,13.853683)">
    <path
       style="fill:none;stroke:#ff0000;stroke-width:2.00014973px;stroke-linecap:butt;stroke-linejoin:miter;stroke-opacity:1"
       d="M 200.90533,-12.853561 C 119.11701,-10.037375 56.023186,17.18576 29.383567,58.489825 3.7605427,98.217684 -17.525196,148.91235 26.112034,202.58469 c 41.595196,51.1607 97.204936,52.53123 128.991846,53.03818 40.40934,0.64446 94.38022,-16.92938 142.07796,-15.9584 69.16956,1.4081 115.90573,57.26245 182.27109,56.32373 51.88045,-0.73384 96.27652,-19.24394 121.98144,-39.89597 24.7735,-19.90372 42.99725,-60.54801 40.19309,-100.91335 C 638.8233,114.81354 625.2698,67.877113 587.4135,37.368427 549.55718,6.8597423 501.35421,-11.962318 466.36679,-10.506739 c -43.02382,1.7899173 -80.85358,2.3468213 -130.39391,0 -50.37792,-2.386499 -135.06755,-2.346822 -135.06755,-2.346822 z"
       id="path3724"
       inkscape:connector-curvature="0"
       sodipodi:nodetypes="cssssssssssc" />
  </g>
</svg>
