<svg width="90" height="102" viewBox="0 0 90 102" fill="none" xmlns="http://www.w3.org/2000/svg">
<path d="M9.228 25.705C8.78894 26.4075 9.0025 27.3329 9.705 27.772C10.4075 28.2111 11.3329 27.9975 11.772 27.295L9.228 25.705ZM25.8 27.4C26.2971 28.0627 27.2373 28.1971 27.9 27.7C28.5627 27.2029 28.6971 26.2627 28.2 25.6L25.8 27.4ZM40.5 15C39.6716 15 39 15.6716 39 16.5C39 17.3284 39.6716 18 40.5 18V15ZM63 68.5C63 69.3284 63.6716 70 64.5 70C65.3284 70 66 69.3284 66 68.5H63ZM19.5 41C19.5 40.1716 18.8284 39.5 18 39.5C17.1716 39.5 16.5 40.1716 16.5 41H19.5ZM65.5 94.2976C65.5 93.4692 64.8284 92.7976 64 92.7976C63.1716 92.7976 62.5 93.4692 62.5 94.2976H65.5ZM42.5 43.5C42.5 42.6716 41.8284 42 41 42C40.1716 42 39.5 42.6716 39.5 43.5H42.5ZM41 56L40.2139 57.2775C40.696 57.5742 41.304 57.5742 41.7861 57.2775L41 56ZM35.2861 50.7225C34.5806 50.2883 33.6567 50.5083 33.2225 51.2139C32.7883 51.9194 33.0083 52.8433 33.7139 53.2775L35.2861 50.7225ZM48.2861 53.2775C48.9917 52.8433 49.2117 51.9194 48.7775 51.2139C48.3433 50.5083 47.4194 50.2883 46.7139 50.7225L48.2861 53.2775ZM32 60C31.1716 60 30.5 60.6716 30.5 61.5C30.5 62.3284 31.1716 63 32 63V60ZM49.5 63C50.3284 63 51 62.3284 51 61.5C51 60.6716 50.3284 60 49.5 60V63ZM71.0174 51.8978C70.4087 51.3359 69.4597 51.3738 68.8978 51.9826C68.3359 52.5913 68.3738 53.5403 68.9826 54.1022L71.0174 51.8978ZM85.5074 99.8507C85.425 100.675 86.0264 101.41 86.8507 101.493C87.6751 101.575 88.4101 100.974 88.4926 100.149L85.5074 99.8507ZM68.1281 101.221C68.8023 101.702 69.7391 101.546 70.2206 100.872C70.7021 100.198 70.546 99.2609 69.8719 98.7794L68.1281 101.221ZM62.5 82.5L63.8927 83.0571C64.1022 82.5335 64.0002 81.9367 63.6289 81.5122L62.5 82.5ZM52 70.5L50.5955 71.0267C50.6589 71.1957 50.7523 71.3519 50.8711 71.4878L52 70.5ZM59.5 64L60.6194 63.0016C60.5248 62.8955 60.4156 62.8034 60.295 62.728L59.5 64ZM74.8806 83.4984C75.432 84.1167 76.3802 84.1709 76.9984 83.6194C77.6167 83.068 77.6709 82.1198 77.1194 81.5016L74.8806 83.4984ZM5 3.5H33.5V0.5H5V3.5ZM35 5V34H38V5H35ZM33.5 35.5H5V38.5H33.5V35.5ZM3.5 34V5H0.5V34H3.5ZM10.5 26.5C11.772 27.295 11.7716 27.2956 11.7713 27.2962C11.7711 27.2964 11.7708 27.2969 11.7706 27.2973C11.7701 27.298 11.7697 27.2986 11.7694 27.2992C11.7686 27.3004 11.768 27.3013 11.7676 27.302C11.7667 27.3034 11.7664 27.3039 11.7666 27.3035C11.7671 27.3027 11.77 27.2984 11.7751 27.2907C11.7854 27.2754 11.8048 27.2469 11.8336 27.2072C11.8912 27.1275 11.9855 27.0033 12.1171 26.8492C12.3812 26.54 12.7896 26.1175 13.3466 25.6931C14.4517 24.8512 16.1403 24 18.5 24L18.5 21C15.3597 21 13.0483 22.1488 11.5284 23.3069C10.7729 23.8825 10.2125 24.46 9.836 24.9008C9.64729 25.1217 9.5033 25.31 9.40272 25.4491C9.35238 25.5187 9.31278 25.5762 9.28374 25.6194C9.26922 25.6411 9.25733 25.6592 9.24805 25.6735C9.24341 25.6807 9.23942 25.6869 9.23608 25.6922C9.23441 25.6948 9.2329 25.6972 9.23156 25.6993C9.23088 25.7004 9.23025 25.7014 9.22966 25.7024C9.22936 25.7028 9.22895 25.7035 9.2288 25.7037C9.2284 25.7044 9.228 25.705 10.5 26.5ZM18.5 24C20.8695 24 22.701 24.8584 23.9559 25.7314C24.5839 26.1683 25.0597 26.6039 25.3735 26.9244C25.53 27.0842 25.6447 27.2138 25.7164 27.2984C25.7523 27.3407 25.7773 27.3715 25.7913 27.3891C25.7983 27.3979 25.8025 27.4034 25.804 27.4053C25.8047 27.4062 25.8047 27.4063 25.8041 27.4054C25.8038 27.405 25.8032 27.4043 25.8026 27.4034C25.8022 27.403 25.8018 27.4025 25.8014 27.4019C25.8012 27.4016 25.8008 27.4011 25.8007 27.401C25.8004 27.4005 25.8 27.4 27 26.5C28.2 25.6 28.1996 25.5995 28.1992 25.5989C28.199 25.5987 28.1986 25.5982 28.1983 25.5978C28.1977 25.5969 28.197 25.5961 28.1963 25.5951C28.1949 25.5933 28.1933 25.5911 28.1915 25.5888C28.1879 25.5841 28.1836 25.5784 28.1785 25.5718C28.1682 25.5585 28.155 25.5415 28.1387 25.521C28.106 25.48 28.0612 25.425 28.0043 25.3578C27.8905 25.2237 27.7278 25.0408 27.5171 24.8256C27.0966 24.3961 26.4786 23.8317 25.6691 23.2686C24.049 22.1416 21.6305 21 18.5 21L18.5 24ZM15.6302 11.7485L15.3802 11.9985L17.5015 14.1198L17.7515 13.8698L15.6302 11.7485ZM22.3058 18.5692L22.5423 18.3064L20.3124 16.2995L20.0759 16.5623L22.3058 18.5692ZM40.5 18H61.5V15H40.5V18ZM63 19.5V68.5H66V19.5H63ZM16.5 41V97H19.5V41H16.5ZM21 101.5H61V98.5H21V101.5ZM65.5 97V94.2976H62.5V97H65.5ZM39.5 43.5V56H42.5V43.5H39.5ZM33.7139 53.2775L40.2139 57.2775L41.7861 54.7225L35.2861 50.7225L33.7139 53.2775ZM46.7139 50.7225L40.2139 54.7225L41.7861 57.2775L48.2861 53.2775L46.7139 50.7225ZM70 53C68.9826 54.1022 68.9825 54.1022 68.9825 54.1021C68.9826 54.1022 68.9826 54.1022 68.9827 54.1024C68.983 54.1026 68.9835 54.103 68.9841 54.1036C68.9854 54.1048 68.9875 54.1067 68.9903 54.1093C68.996 54.1146 69.0047 54.1227 69.0165 54.1336C69.04 54.1555 69.0755 54.1885 69.1222 54.2322C69.2157 54.3196 69.3542 54.4497 69.5321 54.6185C69.888 54.9561 70.4014 55.4482 71.0274 56.0627C72.2804 57.2925 73.9806 59.0082 75.7715 60.9535C79.4128 64.9087 83.2234 69.5974 84.6073 73.0571L87.3927 71.9429C85.7766 67.9026 81.5872 62.8413 77.9785 58.9215C76.1444 56.9293 74.4071 55.1763 73.1288 53.9217C72.4893 53.2939 71.9636 52.79 71.5968 52.442C71.4134 52.2681 71.2697 52.133 71.1712 52.041C71.122 51.995 71.0841 51.9597 71.0583 51.9357C71.0453 51.9236 71.0354 51.9144 71.0286 51.9081C71.0251 51.9049 71.0225 51.9025 71.0206 51.9008C71.0197 51.8999 71.019 51.8992 71.0184 51.8987C71.0182 51.8985 71.0179 51.8983 71.0178 51.8981C71.0176 51.8979 71.0174 51.8978 70 53ZM84.6073 73.0571C85.2708 74.7159 85.6952 77.1878 85.9267 80.0806C86.1555 82.9414 86.1873 86.0898 86.1253 89.0309C86.0635 91.9682 85.9088 94.6769 85.7693 96.6522C85.6997 97.6392 85.6339 98.4416 85.5857 98.996C85.5616 99.2732 85.5419 99.4883 85.5283 99.6334C85.5215 99.706 85.5162 99.761 85.5127 99.7976C85.5109 99.8159 85.5095 99.8295 85.5087 99.8384C85.5082 99.8429 85.5079 99.8461 85.5077 99.8482C85.5076 99.8492 85.5075 99.8499 85.5075 99.8504C85.5075 99.8506 85.5075 99.8507 85.5074 99.8508C85.5074 99.8508 85.5074 99.8507 87 100C88.4926 100.149 88.4926 100.149 88.4926 100.149C88.4926 100.149 88.4927 100.148 88.4927 100.148C88.4928 100.147 88.4929 100.146 88.493 100.145C88.4933 100.142 88.4937 100.138 88.4942 100.133C88.4952 100.122 88.4967 100.107 88.4986 100.087C88.5025 100.048 88.5081 99.9894 88.5152 99.9137C88.5294 99.7622 88.5497 99.5403 88.5744 99.2559C88.6239 98.6873 88.6909 97.8686 88.7619 96.8634C88.9037 94.8544 89.0615 92.0943 89.1247 89.0941C89.1877 86.0977 89.157 82.8398 88.9171 79.8413C88.6798 76.8747 88.2292 74.0341 87.3927 71.9429L84.6073 73.0571ZM69 100C69.8719 98.7794 69.8722 98.7796 69.8725 98.7799C69.8726 98.78 69.873 98.7802 69.8731 98.7803C69.8735 98.7806 69.8739 98.7808 69.8741 98.781C69.8747 98.7814 69.875 98.7817 69.8751 98.7818C69.8754 98.7819 69.8748 98.7815 69.8735 98.7805C69.8707 98.7785 69.8647 98.7741 69.8556 98.7674C69.8374 98.7538 69.8068 98.7307 69.7648 98.6982C69.6809 98.633 69.5519 98.5299 69.3862 98.3889C69.0547 98.1068 68.5783 97.6743 68.025 97.0919C66.9168 95.9253 65.5119 94.1698 64.3416 91.8292L61.6584 93.1708C62.9881 95.8302 64.5832 97.8247 65.85 99.1581C66.4842 99.8257 67.039 100.331 67.4419 100.674C67.6434 100.845 67.8073 100.976 67.9246 101.067C67.9833 101.113 68.0303 101.149 68.0646 101.174C68.0817 101.187 68.0957 101.197 68.1063 101.205C68.1116 101.209 68.1161 101.212 68.1198 101.215C68.1216 101.216 68.1232 101.217 68.1246 101.218C68.1253 101.219 68.1259 101.219 68.1265 101.219C68.1268 101.22 68.1272 101.22 68.1274 101.22C68.1278 101.22 68.1281 101.221 69 100ZM64.3416 91.8292C63.2554 89.6567 63.1362 87.4625 63.3051 85.7743C63.3891 84.9336 63.5432 84.2348 63.6742 83.7523C63.7395 83.5117 63.7985 83.3269 63.8391 83.2075C63.8594 83.1478 63.875 83.1046 63.8845 83.0791C63.8892 83.0663 63.8924 83.058 63.8938 83.0543C63.8946 83.0524 63.8948 83.0517 63.8947 83.0522C63.8946 83.0524 63.8944 83.0529 63.894 83.0538C63.8939 83.0542 63.8937 83.0546 63.8935 83.0552C63.8934 83.0555 63.8932 83.0559 63.8931 83.0561C63.8929 83.0566 63.8927 83.0571 62.5 82.5C61.1073 81.9429 61.1071 81.9435 61.1068 81.944C61.1068 81.9442 61.1065 81.9448 61.1063 81.9453C61.106 81.9461 61.1056 81.9471 61.1052 81.9481C61.1044 81.9501 61.1035 81.9524 61.1025 81.9551C61.1004 81.9604 61.0978 81.9669 61.0948 81.9747C61.0889 81.9902 61.0811 82.0106 61.0718 82.0357C61.0532 82.0858 61.0283 82.155 60.9988 82.2418C60.9398 82.4152 60.8621 82.6601 60.7789 82.9664C60.613 83.5777 60.4234 84.4414 60.3199 85.4757C60.1138 87.5375 60.2446 90.3433 61.6584 93.1708L64.3416 91.8292ZM63.6289 81.5122L53.1289 69.5122L50.8711 71.4878L61.3711 83.4878L63.6289 81.5122ZM52 70.5C53.4045 69.9733 53.4047 69.9738 53.4049 69.9743C53.4049 69.9744 53.4051 69.9749 53.4052 69.9752C53.4054 69.9758 53.4056 69.9763 53.4058 69.9767C53.4061 69.9777 53.4064 69.9783 53.4065 69.9788C53.4069 69.9797 53.4069 69.9797 53.4065 69.9788C53.4059 69.977 53.4039 69.9716 53.4009 69.9628C53.3948 69.9452 53.3843 69.9142 53.3706 69.871C53.3432 69.7843 53.3036 69.6501 53.2615 69.4786C53.1765 69.1322 53.0863 68.6524 53.0608 68.1162C53.0086 67.019 53.2298 65.8915 54.0607 65.0607L51.9393 62.9393C50.2702 64.6085 49.9914 66.731 50.0642 68.2588C50.1012 69.0351 50.2297 69.7115 50.3479 70.1933C50.4074 70.4359 50.4654 70.6337 50.5102 70.7755C50.5327 70.8466 50.552 70.9039 50.5666 70.9461C50.574 70.9673 50.5801 70.9846 50.585 70.9981C50.5875 71.0049 50.5896 71.0106 50.5913 71.0154C50.5922 71.0178 50.593 71.0199 50.5937 71.0218C50.594 71.0227 50.5944 71.0236 50.5947 71.0244C50.5948 71.0248 50.595 71.0254 50.5951 71.0256C50.5953 71.0262 50.5955 71.0267 52 70.5ZM54.0607 65.0607C54.7744 64.3469 55.7498 64.2621 56.8401 64.5217C57.3671 64.6472 57.8448 64.8394 58.196 65.0051C58.3692 65.0868 58.5055 65.1591 58.5948 65.2087C58.6393 65.2334 58.6716 65.2522 58.6905 65.2634C58.6999 65.269 58.706 65.2726 58.7084 65.2742C58.7097 65.2749 58.71 65.2751 58.7095 65.2748C58.7092 65.2746 58.7087 65.2743 58.7079 65.2738C58.7076 65.2736 58.7071 65.2733 58.7066 65.273C58.7064 65.2729 58.706 65.2726 58.7059 65.2725C58.7054 65.2723 58.705 65.272 59.5 64C60.295 62.728 60.2945 62.7277 60.294 62.7274C60.2939 62.7273 60.2934 62.727 60.293 62.7268C60.2923 62.7263 60.2915 62.7258 60.2906 62.7253C60.2889 62.7242 60.2869 62.723 60.2847 62.7216C60.2803 62.7189 60.2749 62.7156 60.2685 62.7117C60.2556 62.7039 60.2389 62.6938 60.2184 62.6817C60.1775 62.6575 60.1215 62.625 60.0517 62.5862C59.9124 62.5088 59.7168 62.4054 59.4759 62.2918C58.9989 62.0668 58.3204 61.7903 57.5349 61.6033C56.0002 61.2379 53.7256 61.1531 51.9393 62.9393L54.0607 65.0607ZM58.3806 64.9984L74.8806 83.4984L77.1194 81.5016L60.6194 63.0016L58.3806 64.9984ZM32 63H41V60H32V63ZM41 63H49.5V60H41V63ZM61 101.5C63.4853 101.5 65.5 99.4853 65.5 97H62.5C62.5 97.8284 61.8284 98.5 61 98.5V101.5ZM16.5 97C16.5 99.4853 18.5147 101.5 21 101.5V98.5C20.1716 98.5 19.5 97.8284 19.5 97H16.5ZM22.5423 18.3064C24.2379 16.4224 24.1621 13.5408 22.3698 11.7485L20.2485 13.8698C20.9125 14.5339 20.9406 15.6015 20.3124 16.2995L22.5423 18.3064ZM15.5623 18.9241C17.5225 20.6883 20.5416 20.5294 22.3058 18.5692L20.0759 16.5623C19.4201 17.2909 18.2978 17.35 17.5692 16.6942L15.5623 18.9241ZM15.3802 11.9985C13.4457 13.933 13.5288 17.094 15.5623 18.9241L17.5692 16.6942C16.8133 16.0139 16.7824 14.8389 17.5015 14.1198L15.3802 11.9985ZM5 35.5C4.17157 35.5 3.5 34.8284 3.5 34H0.5C0.5 36.4853 2.51472 38.5 5 38.5V35.5ZM17.7515 13.8698C18.441 13.1803 19.559 13.1803 20.2485 13.8698L22.3698 11.7485C20.5087 9.8874 17.4913 9.8874 15.6302 11.7485L17.7515 13.8698ZM35 34C35 34.8284 34.3284 35.5 33.5 35.5V38.5C35.9853 38.5 38 36.4853 38 34H35ZM61.5 18C62.3284 18 63 18.6716 63 19.5H66C66 17.0147 63.9853 15 61.5 15V18ZM33.5 3.5C34.3284 3.5 35 4.17157 35 5H38C38 2.51472 35.9853 0.5 33.5 0.5V3.5ZM5 0.5C2.51472 0.5 0.5 2.51472 0.5 5H3.5C3.5 4.17157 4.17157 3.5 5 3.5V0.5Z" fill="#1B3CC8"/>
</svg>
