<svg width="48" height="47" viewBox="0 0 48 47" fill="none" xmlns="http://www.w3.org/2000/svg">
<path d="M37.9895 23.6178V4C37.9895 2.34315 36.6464 1 34.9895 1H12.5445C10.9831 1 9.71728 2.26579 9.71728 3.82723V3.82723M9.71728 20.7906V41.7592M37.9895 41.7592V43C37.9895 44.6569 36.6464 46 34.9895 46H12.7173C11.0604 46 9.71728 44.6569 9.71728 43V41.7592M16.0785 16.5497H18.9686C20.6254 16.5497 21.9686 15.2066 21.9686 13.5497V9.71728M26.445 37.5183V33.9215C26.445 32.2646 27.7882 30.9215 29.445 30.9215H29.5079M9.71728 41.7592H29.5079M1 13.2513V14.0209C1 15.6778 2.34315 17.0209 4 17.0209H10.4869C12.1438 17.0209 13.4869 15.6778 13.4869 14.0209V6.89005M1 13.2513V6.82723C1 5.17037 2.34315 3.82723 4 3.82723H10.4869C12.1438 3.82723 13.4869 5.17037 13.4869 6.82722V6.89005M1 13.2513L5.00524 9.71728L7.83246 12.3089L13.4869 6.89005M29.5079 5.94764H13.4869M37.0471 31.3927L42.9372 34.6911L37.0471 37.9895V31.3927ZM29.445 20.555H29.8063C31.4631 20.555 32.8063 21.8981 32.8063 23.555V24.1518C32.8063 25.8087 31.4631 27.1518 29.8063 27.1518H29.445C27.7882 27.1518 26.445 25.8087 26.445 24.1518V23.555C26.445 21.8981 27.7882 20.555 29.445 20.555ZM19.0785 37.5183H19.4398C21.0966 37.5183 22.4398 36.1752 22.4398 34.5183V33.9215C22.4398 32.2646 21.0966 30.9215 19.4398 30.9215H19.0785C17.4217 30.9215 16.0785 32.2646 16.0785 33.9215V34.5183C16.0785 36.1752 17.4217 37.5183 19.0785 37.5183ZM19.0785 27.1518H19.4398C21.0966 27.1518 22.4398 25.8087 22.4398 24.1518V23.555C22.4398 21.8981 21.0966 20.555 19.4398 20.555H19.0785C17.4217 20.555 16.0785 21.8981 16.0785 23.555V24.1518C16.0785 25.8087 17.4217 27.1518 19.0785 27.1518ZM29.445 16.5497H29.8063C31.4631 16.5497 32.8063 15.2066 32.8063 13.5497V12.7173C32.8063 11.0604 31.4631 9.71728 29.8063 9.71728H29.445C27.7882 9.71728 26.445 11.0604 26.445 12.7173V13.5497C26.445 15.2066 27.7882 16.5497 29.445 16.5497ZM46.4712 38.7592V30.8586C46.4712 29.2018 45.1281 27.8586 43.4712 27.8586H35.8063C34.1494 27.8586 32.8063 29.2018 32.8063 30.8586V38.7592C32.8063 40.416 34.1494 41.7592 35.8063 41.7592H43.4712C45.1281 41.7592 46.4712 40.416 46.4712 38.7592Z" stroke="white" stroke-width="2" stroke-linecap="round" stroke-linejoin="round"/>
</svg>
