<svg width="27" height="47" viewBox="0 0 27 47" fill="none" xmlns="http://www.w3.org/2000/svg">
<path d="M10.1061 1.85591C9.55385 1.85591 9.10613 2.30363 9.10613 2.85591C9.10613 3.4082 9.55385 3.85591 10.1061 3.85591V1.85591ZM13.375 3.85591C13.9273 3.85591 14.375 3.4082 14.375 2.85591C14.375 2.30363 13.9273 1.85591 13.375 1.85591V3.85591ZM15.7099 1.85591C15.1576 1.85591 14.7099 2.30363 14.7099 2.85591C14.7099 3.4082 15.1576 3.85591 15.7099 3.85591V1.85591ZM16.6439 3.85591C17.1962 3.85591 17.6439 3.4082 17.6439 2.85591C17.6439 2.30363 17.1962 1.85591 16.6439 1.85591V3.85591ZM4.50196 25.7108C4.59847 26.2546 5.11754 26.6172 5.66133 26.5207C6.20511 26.4241 6.56769 25.9051 6.47118 25.3613L4.50196 25.7108ZM6.19763 20.5098L5.29997 20.0691L6.19763 20.5098ZM19.3704 18.2023L19.5215 19.1908C19.7844 19.1506 20.0205 19.0074 20.1775 18.7927C20.3346 18.578 20.3996 18.3096 20.3582 18.0468L19.3704 18.2023ZM20.008 15.8218C19.9221 15.2762 19.4102 14.9036 18.8647 14.9895C18.3191 15.0753 17.9465 15.5872 18.0323 16.1328L20.008 15.8218ZM16.9428 17.5617C16.3968 17.6452 16.0219 18.1554 16.1053 18.7013C16.1888 19.2473 16.699 19.6222 17.245 19.5388L16.9428 17.5617ZM22.3387 22.1897C22.2422 21.6459 21.7231 21.2833 21.1793 21.3798C20.6355 21.4764 20.2729 21.9954 20.3694 22.5392L22.3387 22.1897ZM20.643 27.3907L21.5407 27.8314L20.643 27.3907ZM7.47022 29.6982L7.31914 28.7097C7.0562 28.7499 6.82011 28.8931 6.66308 29.1078C6.50605 29.3225 6.44103 29.5909 6.48239 29.8537L7.47022 29.6982ZM6.83262 32.0787C6.9185 32.6243 7.43038 32.9969 7.97595 32.911C8.52152 32.8252 8.89417 32.3133 8.8083 31.7677L6.83262 32.0787ZM9.89784 30.3388C10.4438 30.2553 10.8187 29.7451 10.7353 29.1992C10.6518 28.6532 10.1416 28.2783 9.59567 28.3617L9.89784 30.3388ZM6 47.0002H20.75V45.0002H6V47.0002ZM10.1061 3.85591H13.375V1.85591H10.1061V3.85591ZM15.7099 3.85591H16.6439V1.85591H15.7099V3.85591ZM26.75 41.0002V6.00024H24.75V41.0002H26.75ZM0 6.00024V41.0002H2V6.00024H0ZM6.83726 0.000244141H6V2.00024H6.83726V0.000244141ZM5.83726 1.00024V1.71159H7.83726V1.00024H5.83726ZM9.83727 5.71158H16.9127V3.71158H9.83727V5.71158ZM20.75 0.000244141H19.9127V2.00024H20.75V0.000244141ZM19.9127 0.000244141H6.83726V2.00024H19.9127V0.000244141ZM20.9127 1.71159V1.00024H18.9127V1.71159H20.9127ZM6.47118 25.3613C6.2052 23.8627 6.4235 22.3188 7.09528 20.9505L5.29997 20.0691C4.44115 21.8184 4.16163 23.7934 4.50196 25.7108L6.47118 25.3613ZM7.09528 20.9505C7.7671 19.5821 8.85838 18.4589 10.2138 17.7429L9.27969 15.9744C7.55227 16.8869 6.15875 18.3199 5.29997 20.0691L7.09528 20.9505ZM10.2138 17.7429C11.5694 17.0269 13.1189 16.7553 14.64 16.9677L14.9166 14.9869C12.9802 14.7165 11.007 15.062 9.27969 15.9744L10.2138 17.7429ZM14.64 16.9677C16.1612 17.1801 17.5746 17.8653 18.6781 18.9239L20.0627 17.4807C18.6546 16.1298 16.853 15.2573 14.9166 14.9869L14.64 16.9677ZM18.0323 16.1328L18.3826 18.3578L20.3582 18.0468L20.008 15.8218L18.0323 16.1328ZM19.2193 17.2138L16.9428 17.5617L17.245 19.5388L19.5215 19.1908L19.2193 17.2138ZM20.3694 22.5392C20.6354 24.0378 20.4171 25.5817 19.7453 26.95L21.5407 27.8314C22.3995 26.0821 22.679 24.1071 22.3387 22.1897L20.3694 22.5392ZM19.7453 26.95C19.0735 28.3184 17.9823 29.4416 16.6268 30.1576L17.5609 31.926C19.2884 31.0136 20.6819 29.5806 21.5407 27.8314L19.7453 26.95ZM16.6268 30.1576C15.2713 30.8736 13.7218 31.1452 12.2006 30.9328L11.924 32.9136C13.8605 33.184 15.8336 32.8385 17.5609 31.926L16.6268 30.1576ZM12.2006 30.9328C10.6795 30.7204 9.26602 30.0352 8.16251 28.9766L6.77793 30.4198C8.18604 31.7707 9.98759 32.6432 11.924 32.9136L12.2006 30.9328ZM8.8083 31.7677L8.45806 29.5427L6.48239 29.8537L6.83262 32.0787L8.8083 31.7677ZM7.6213 30.6867L9.89784 30.3388L9.59567 28.3617L7.31914 28.7097L7.6213 30.6867ZM16.9127 5.71158C19.1219 5.71158 20.9127 3.92072 20.9127 1.71159H18.9127C18.9127 2.81615 18.0173 3.71158 16.9127 3.71158V5.71158ZM5.83726 1.71159C5.83726 3.92072 7.62813 5.71158 9.83727 5.71158V3.71158C8.73269 3.71158 7.83726 2.81615 7.83726 1.71159H5.83726ZM26.75 6.00024C26.75 2.68654 24.0637 0.000244141 20.75 0.000244141V2.00024C22.9591 2.00024 24.75 3.79111 24.75 6.00024H26.75ZM20.75 47.0002C24.0637 47.0002 26.75 44.314 26.75 41.0002H24.75C24.75 43.2094 22.9591 45.0002 20.75 45.0002V47.0002ZM6 45.0002C3.79086 45.0002 2 43.2094 2 41.0002H0C0 44.314 2.68629 47.0002 6 47.0002V45.0002ZM2 6.00024C2 3.79111 3.79086 2.00024 6 2.00024V0.000244141C2.68629 0.000244141 0 2.68654 0 6.00024H2Z" fill="#1B3CC8"/>
</svg>
