<svg width="27" height="47" viewBox="0 0 27 47" fill="none" xmlns="http://www.w3.org/2000/svg">
<path d="M10.1061 1.85567C9.55385 1.85567 9.10613 2.30339 9.10613 2.85567C9.10613 3.40795 9.55385 3.85567 10.1061 3.85567V1.85567ZM13.375 3.85567C13.9273 3.85567 14.375 3.40795 14.375 2.85567C14.375 2.30339 13.9273 1.85567 13.375 1.85567V3.85567ZM15.7099 1.85567C15.1576 1.85567 14.7099 2.30339 14.7099 2.85567C14.7099 3.40795 15.1576 3.85567 15.7099 3.85567V1.85567ZM16.6439 3.85567C17.1962 3.85567 17.6439 3.40795 17.6439 2.85567C17.6439 2.30339 17.1962 1.85567 16.6439 1.85567V3.85567ZM4.50196 25.7106C4.59847 26.2543 5.11754 26.6169 5.66133 26.5204C6.20511 26.4239 6.56769 25.9048 6.47118 25.361L4.50196 25.7106ZM6.19763 20.5095L5.29997 20.0688H5.29997L6.19763 20.5095ZM19.3704 18.2021L19.5215 19.1906C19.7844 19.1504 20.0205 19.0071 20.1775 18.7924C20.3346 18.5777 20.3996 18.3093 20.3582 18.0466L19.3704 18.2021ZM20.008 15.8216C19.9221 15.276 19.4102 14.9033 18.8647 14.9892C18.3191 15.0751 17.9465 15.587 18.0323 16.1325L20.008 15.8216ZM16.9428 17.5615C16.3968 17.6449 16.0219 18.1551 16.1053 18.7011C16.1888 19.247 16.699 19.622 17.2449 19.5385L16.9428 17.5615ZM22.3387 22.1894C22.2422 21.6457 21.7231 21.2831 21.1793 21.3796C20.6355 21.4761 20.2729 21.9952 20.3694 22.539L22.3387 22.1894ZM20.643 27.3905L21.5407 27.8312V27.8312L20.643 27.3905ZM7.47022 29.6979L7.31914 28.7094C7.0562 28.7496 6.82011 28.8929 6.66308 29.1076C6.50605 29.3223 6.44103 29.5907 6.48239 29.8534L7.47022 29.6979ZM6.83262 32.0785C6.9185 32.624 7.43038 32.9967 7.97595 32.9108C8.52152 32.8249 8.89417 32.313 8.8083 31.7675L6.83262 32.0785ZM9.89784 30.3385C10.4438 30.2551 10.8187 29.7449 10.7353 29.1989C10.6518 28.653 10.1416 28.278 9.59567 28.3615L9.89784 30.3385ZM6 47H20.75V45H6V47ZM10.1061 3.85567H13.375V1.85567H10.1061V3.85567ZM15.7099 3.85567H16.6439V1.85567H15.7099V3.85567ZM26.75 41V6H24.75V41H26.75ZM0 6V41H2V6H0ZM6.83726 0H6V2H6.83726V0ZM5.83726 1V1.71134H7.83726V1H5.83726ZM9.83726 5.71134H16.9127V3.71134H9.83726V5.71134ZM20.75 0H19.9127V2H20.75V0ZM19.9127 0H6.83726V2H19.9127V0ZM20.9127 1.71134V1H18.9127V1.71134H20.9127ZM6.47118 25.361C6.2052 23.8625 6.4235 22.3186 7.09528 20.9502L5.29997 20.0688C4.44115 21.8181 4.16163 23.7932 4.50196 25.7106L6.47118 25.361ZM7.09528 20.9502C7.7671 19.5818 8.85837 18.4586 10.2138 17.7426L9.27969 15.9742C7.55227 16.8867 6.15875 18.3196 5.29997 20.0688L7.09528 20.9502ZM10.2138 17.7426C11.5694 17.0266 13.1189 16.7551 14.64 16.9674L14.9166 14.9867C12.9802 14.7163 11.007 15.0618 9.27969 15.9742L10.2138 17.7426ZM14.64 16.9674C16.1612 17.1798 17.5746 17.865 18.6781 18.9237L20.0627 17.4804C18.6546 16.1296 16.853 15.257 14.9166 14.9867L14.64 16.9674ZM18.0323 16.1325L18.3826 18.3576L20.3582 18.0466L20.008 15.8216L18.0323 16.1325ZM19.2193 17.2135L16.9428 17.5615L17.2449 19.5385L19.5215 19.1906L19.2193 17.2135ZM20.3694 22.539C20.6354 24.0375 20.4171 25.5814 19.7453 26.9498L21.5407 27.8312C22.3995 26.0819 22.679 24.1068 22.3387 22.1894L20.3694 22.539ZM19.7453 26.9498C19.0735 28.3182 17.9823 29.4414 16.6268 30.1574L17.5609 31.9258C19.2884 31.0133 20.6819 29.5804 21.5407 27.8312L19.7453 26.9498ZM16.6268 30.1574C15.2713 30.8734 13.7218 31.1449 12.2006 30.9326L11.924 32.9134C13.8605 33.1837 15.8336 32.8382 17.5609 31.9258L16.6268 30.1574ZM12.2006 30.9326C10.6795 30.7202 9.26602 30.035 8.16251 28.9763L6.77793 30.4196C8.18604 31.7704 9.98759 32.643 11.924 32.9134L12.2006 30.9326ZM8.8083 31.7675L8.45806 29.5424L6.48239 29.8534L6.83262 32.0785L8.8083 31.7675ZM7.6213 30.6865L9.89784 30.3385L9.59567 28.3615L7.31914 28.7094L7.6213 30.6865ZM16.9127 5.71134C19.1219 5.71134 20.9127 3.92048 20.9127 1.71134H18.9127C18.9127 2.81591 18.0173 3.71134 16.9127 3.71134V5.71134ZM5.83726 1.71134C5.83726 3.92048 7.62813 5.71134 9.83726 5.71134V3.71134C8.73269 3.71134 7.83726 2.81591 7.83726 1.71134H5.83726ZM26.75 6C26.75 2.68629 24.0637 0 20.75 0V2C22.9591 2 24.75 3.79086 24.75 6H26.75ZM20.75 47C24.0637 47 26.75 44.3137 26.75 41H24.75C24.75 43.2091 22.9591 45 20.75 45V47ZM6 45C3.79086 45 2 43.2091 2 41H0C0 44.3137 2.68629 47 6 47V45ZM2 6C2 3.79086 3.79086 2 6 2V0C2.68629 0 0 2.68629 0 6H2Z" fill="white"/>
</svg>
