<svg width="48" height="47" viewBox="0 0 48 47" fill="none" xmlns="http://www.w3.org/2000/svg">
<path d="M37.9895 23.618V4.00024C37.9895 2.34339 36.6464 1.00024 34.9895 1.00024H12.5445C10.9831 1.00024 9.71728 2.26604 9.71728 3.82747V3.82747M9.71728 20.7908V41.7594M37.9895 41.7594V43.0002C37.9895 44.6571 36.6464 46.0002 34.9895 46.0002H12.7173C11.0604 46.0002 9.71728 44.6571 9.71728 43.0002V41.7594M16.0785 16.55H18.9686C20.6254 16.55 21.9686 15.2068 21.9686 13.55V9.71752M26.445 37.5186V33.9217C26.445 32.2649 27.7882 30.9217 29.445 30.9217H29.5079M9.71728 41.7594H29.5079M1 13.2516V14.0212C1 15.678 2.34315 17.0212 4 17.0212H10.4869C12.1438 17.0212 13.4869 15.678 13.4869 14.0212V6.8903M1 13.2516V6.82747C1 5.17062 2.34315 3.82747 4 3.82747H10.4869C12.1438 3.82747 13.4869 5.17061 13.4869 6.82747V6.8903M1 13.2516L5.00524 9.71752L7.83246 12.3091L13.4869 6.8903M29.5079 5.94789H13.4869M37.0471 31.3929L42.9372 34.6913L37.0471 37.9898V31.3929ZM29.445 20.5552H29.8063C31.4631 20.5552 32.8063 21.8984 32.8063 23.5552V24.1521C32.8063 25.8089 31.4631 27.1521 29.8063 27.1521H29.445C27.7882 27.1521 26.445 25.8089 26.445 24.1521V23.5552C26.445 21.8984 27.7882 20.5552 29.445 20.5552ZM19.0785 37.5186H19.4398C21.0966 37.5186 22.4398 36.1754 22.4398 34.5186V33.9217C22.4398 32.2649 21.0966 30.9217 19.4398 30.9217H19.0785C17.4217 30.9217 16.0785 32.2649 16.0785 33.9217V34.5186C16.0785 36.1754 17.4217 37.5186 19.0785 37.5186ZM19.0785 27.1521H19.4398C21.0966 27.1521 22.4398 25.8089 22.4398 24.1521V23.5552C22.4398 21.8984 21.0966 20.5552 19.4398 20.5552H19.0785C17.4217 20.5552 16.0785 21.8984 16.0785 23.5552V24.1521C16.0785 25.8089 17.4217 27.1521 19.0785 27.1521ZM29.445 16.55H29.8063C31.4631 16.55 32.8063 15.2068 32.8063 13.55V12.7175C32.8063 11.0607 31.4631 9.71752 29.8063 9.71752H29.445C27.7882 9.71752 26.445 11.0607 26.445 12.7175V13.55C26.445 15.2068 27.7882 16.55 29.445 16.55ZM46.4712 38.7594V30.8589C46.4712 29.202 45.1281 27.8589 43.4712 27.8589H35.8063C34.1494 27.8589 32.8063 29.202 32.8063 30.8589V38.7594C32.8063 40.4163 34.1494 41.7594 35.8063 41.7594H43.4712C45.1281 41.7594 46.4712 40.4163 46.4712 38.7594Z" stroke="#1B3CC8" stroke-width="2" stroke-linecap="round" stroke-linejoin="round"/>
</svg>
