<svg width="89" height="104" viewBox="0 0 89 104" fill="none" xmlns="http://www.w3.org/2000/svg">
<path d="M85.5 102C85.5 102.828 86.1716 103.5 87 103.5C87.8284 103.5 88.5 102.828 88.5 102H85.5ZM71.7263 51.7747C71.1813 51.1507 70.2337 51.0867 69.6098 51.6316C68.9858 52.1766 68.9218 53.1242 69.4667 53.7481L71.7263 51.7747ZM67.6753 101.144C68.324 101.659 69.2675 101.551 69.7828 100.902C70.298 100.254 70.1898 99.3102 69.5411 98.795L67.6753 101.144ZM62.6433 82.203L64.0878 82.6072C64.2231 82.1236 64.1074 81.6043 63.7796 81.2239L62.6433 82.203ZM74.439 83.1915C74.985 83.8146 75.9327 83.8772 76.5558 83.3313C77.1788 82.7853 77.2414 81.8376 76.6955 81.2145L74.439 83.1915ZM64.6316 69.7217L63.5034 70.7102L64.6316 69.7217ZM65.8844 94.8934C65.8844 94.065 65.2128 93.3934 64.3844 93.3934C63.556 93.3934 62.8844 94.065 62.8844 94.8934H65.8844ZM40.7719 15.2208C39.9435 15.2208 39.2719 15.8924 39.2719 16.7208C39.2719 17.5492 39.9435 18.2208 40.7719 18.2208V15.2208ZM19.4064 41.0863C19.4064 40.2579 18.7349 39.5863 17.9064 39.5863C17.078 39.5863 16.4064 40.2579 16.4064 41.0863H19.4064ZM42.2719 43.6244C42.2719 42.7959 41.6004 42.1244 40.7719 42.1244C39.9435 42.1244 39.2719 42.7959 39.2719 43.6244H42.2719ZM40.7719 56.3147L39.9278 57.5546C40.4371 57.9014 41.1067 57.9014 41.6161 57.5546L40.7719 56.3147ZM35.6512 51.0139C34.9664 50.5477 34.0333 50.7249 33.5671 51.4097C33.1009 52.0945 33.2781 53.0275 33.9629 53.4937L35.6512 51.0139ZM47.581 53.4937C48.2658 53.0275 48.443 52.0945 47.9768 51.4097C47.5106 50.7249 46.5775 50.5477 45.8927 51.0139L47.581 53.4937ZM32.8187 59.8909C31.9903 59.8909 31.3187 60.5624 31.3187 61.3909C31.3187 62.2193 31.9903 62.8909 32.8187 62.8909V59.8909ZM48.7251 62.8909C49.5536 62.8909 50.2251 62.2193 50.2251 61.3909C50.2251 60.5624 49.5536 59.8909 48.7251 59.8909V62.8909ZM9.44619 25.2511C8.83075 25.8057 8.78139 26.7541 9.33594 27.3696C9.89049 27.985 10.839 28.0344 11.4544 27.4798L9.44619 25.2511ZM25.8165 27.449C26.4149 28.0219 27.3644 28.0012 27.9373 27.4028C28.5102 26.8044 28.4895 25.8549 27.8911 25.282L25.8165 27.449ZM20.9335 99.9422L20.9471 101.442L20.9335 99.9422ZM52.8743 70.8666L51.738 71.8458L52.8743 70.8666ZM61.4115 99.5768L61.3979 98.0769L61.4115 99.5768ZM82.0637 65.8911L80.9339 66.8778L82.0637 65.8911ZM88.5 102V79.0473H85.5V102H88.5ZM83.1934 64.9044L71.7263 51.7747L69.4667 53.7481L80.9339 66.8778L83.1934 64.9044ZM69.5411 98.795C66.7908 96.6104 61.9337 90.3063 64.0878 82.6072L61.1987 81.7989C58.5809 91.1556 64.4607 98.5909 67.6753 101.144L69.5411 98.795ZM63.7796 81.2239L54.0106 69.8874L51.738 71.8458L61.507 83.1822L63.7796 81.2239ZM58.969 65.535L63.5034 70.7102L65.7598 68.7332L61.2255 63.558L58.969 65.535ZM63.5034 70.7102L74.439 83.1915L76.6955 81.2145L65.7598 68.7332L63.5034 70.7102ZM63.1316 19.7208V69.7217H66.1316V19.7208H63.1316ZM20.9471 101.442L61.425 101.077L61.3979 98.0769L20.92 98.4423L20.9471 101.442ZM65.8844 96.5769V94.8934H62.8844V96.5769H65.8844ZM40.7719 18.2208H61.6316V15.2208H40.7719V18.2208ZM16.4064 41.0863V96.9423H19.4064V41.0863H16.4064ZM5 3.5H33.7953V0.5H5V3.5ZM35.2953 5V34.0254H38.2953V5H35.2953ZM33.7953 35.5254H5V38.5254H33.7953V35.5254ZM3.5 34.0254V5H0.5V34.0254H3.5ZM39.2719 43.6244V56.3147H42.2719V43.6244H39.2719ZM41.6161 55.0748L35.6512 51.0139L33.9629 53.4937L39.9278 57.5546L41.6161 55.0748ZM41.6161 57.5546L47.581 53.4937L45.8927 51.0139L39.9278 55.0748L41.6161 57.5546ZM32.8187 62.8909H48.7251V59.8909H32.8187V62.8909ZM11.4544 27.4798L13.0044 26.0832L10.9962 23.8544L9.44619 25.2511L11.4544 27.4798ZM24.5725 26.258L25.8165 27.449L27.8911 25.282L26.6471 24.091L24.5725 26.258ZM13.0044 26.0832C16.3114 23.1034 21.3571 23.1797 24.5725 26.258L26.6471 24.091C22.2969 19.9262 15.4703 19.823 10.9962 23.8544L13.0044 26.0832ZM15.6094 11.617C13.5128 13.544 13.5128 16.852 15.6094 18.7789L17.6395 16.5701C16.8361 15.8317 16.8361 14.5642 17.6395 13.8258L15.6094 11.617ZM17.6395 13.8258C18.3525 13.1705 19.4487 13.1705 20.1617 13.8258L22.1918 11.617C20.3309 9.90674 17.4702 9.90674 15.6094 11.617L17.6395 13.8258ZM5 35.5254C4.17157 35.5254 3.5 34.8538 3.5 34.0254H0.5C0.5 36.5107 2.51473 38.5254 5 38.5254V35.5254ZM66.1316 19.7208C66.1316 17.2355 64.1169 15.2208 61.6316 15.2208V18.2208C62.46 18.2208 63.1316 18.8924 63.1316 19.7208H66.1316ZM20.92 98.4423C20.0863 98.4498 19.4064 97.7761 19.4064 96.9423H16.4064C16.4064 99.4435 18.446 101.465 20.9471 101.442L20.92 98.4423ZM35.2953 34.0254C35.2953 34.8538 34.6237 35.5254 33.7953 35.5254V38.5254C36.2806 38.5254 38.2953 36.5107 38.2953 34.0254H35.2953ZM56.4958 64.4137C57.4433 64.4137 58.3447 64.8224 58.969 65.535L61.2255 63.558C60.0315 62.1952 58.3077 61.4137 56.4958 61.4137V64.4137ZM5 0.5C2.51472 0.5 0.5 2.51472 0.5 5H3.5C3.5 4.17157 4.17157 3.5 5 3.5V0.5ZM15.6094 18.7789C17.4702 20.4892 20.3309 20.4892 22.1918 18.7789L20.1617 16.5701C19.4487 17.2255 18.3525 17.2255 17.6395 16.5701L15.6094 18.7789ZM54.0106 69.8874C53.4939 69.2878 53.2076 68.5147 53.2076 67.7191H50.2076C50.2076 69.2294 50.7493 70.6985 51.738 71.8458L54.0106 69.8874ZM33.7953 3.5C34.6237 3.5 35.2953 4.17158 35.2953 5H38.2953C38.2953 2.51472 36.2806 0.5 33.7953 0.5V3.5ZM22.1918 18.7789C24.2884 16.852 24.2884 13.544 22.1918 11.617L20.1617 13.8258C20.9651 14.5642 20.9651 15.8317 20.1617 16.5701L22.1918 18.7789ZM53.2076 67.7191C53.2076 65.8961 54.6868 64.4137 56.4958 64.4137V61.4137C53.016 61.4137 50.2076 64.2532 50.2076 67.7191H53.2076ZM61.425 101.077C63.8943 101.054 65.8844 99.0464 65.8844 96.5769H62.8844C62.8844 97.4001 62.221 98.0694 61.3979 98.0769L61.425 101.077ZM88.5 79.0473C88.5 73.8464 86.6147 68.8217 83.1934 64.9044L80.9339 66.8778C83.8778 70.2485 85.5 74.5721 85.5 79.0473H88.5Z" fill="white"/>
</svg>
