<svg width="59" height="104" viewBox="0 0 59 104" fill="none" xmlns="http://www.w3.org/2000/svg">
<path d="M22.2358 4.62371C21.4074 4.62371 20.7358 5.29528 20.7358 6.12371C20.7358 6.95214 21.4074 7.62371 22.2358 7.62371V4.62371ZM29.5 7.62371C30.3284 7.62371 31 6.95214 31 6.12371C31 5.29528 30.3284 4.62371 29.5 4.62371V7.62371ZM34.6887 4.62371C33.8603 4.62371 33.1887 5.29528 33.1887 6.12371C33.1887 6.95214 33.8603 7.62371 34.6887 7.62371V4.62371ZM36.7641 7.62371C37.5926 7.62371 38.2641 6.95214 38.2641 6.12371C38.2641 5.29528 37.5926 4.62371 36.7641 4.62371V7.62371ZM10.4932 56.7861C10.638 57.6018 11.4166 58.1457 12.2323 58.0009C13.048 57.8561 13.5918 57.0775 13.4471 56.2619L10.4932 56.7861ZM13.5503 45.3545L12.2038 44.6935L12.2038 44.6935L13.5503 45.3545ZM42.8231 40.2268L43.0497 41.7096C43.4441 41.6493 43.7983 41.4344 44.0338 41.1123C44.2694 40.7903 44.3669 40.3877 44.3049 39.9936L42.8231 40.2268ZM43.5266 35.0491C43.3978 34.2307 42.6299 33.6717 41.8116 33.8006C40.9932 33.9294 40.4342 34.6972 40.5631 35.5156L43.5266 35.0491ZM37.5375 39.5172C36.7186 39.6424 36.1562 40.4077 36.2814 41.2266C36.4065 42.0455 37.1719 42.6079 37.9908 42.4828L37.5375 39.5172ZM48.7082 49.2139C48.5634 48.3982 47.7848 47.8543 46.9691 47.9991C46.1534 48.1439 45.6095 48.9225 45.7543 49.7381L48.7082 49.2139ZM45.6511 60.6455L46.9976 61.3065L46.9976 61.3065L45.6511 60.6455ZM16.3783 65.7732L16.1516 64.2904C15.7572 64.3507 15.4031 64.5656 15.1676 64.8877C14.932 65.2097 14.8345 65.6123 14.8965 66.0064L16.3783 65.7732ZM15.6748 70.9509C15.8036 71.7693 16.5715 72.3283 17.3898 72.1994C18.2082 72.0706 18.7671 71.3028 18.6383 70.4844L15.6748 70.9509ZM21.6639 66.4828C22.4828 66.3576 23.0452 65.5923 22.92 64.7734C22.7949 63.9545 22.0295 63.3921 21.2106 63.5172L21.6639 66.4828ZM7 103.5H52V100.5H7V103.5ZM22.2358 7.62371H29.5V4.62371H22.2358V7.62371ZM34.6887 7.62371H36.7641V4.62371H34.6887V7.62371ZM58.5 97V7H55.5V97H58.5ZM0.5 7V97H3.5V7H0.5ZM14.9717 0.5H7V3.5H14.9717V0.5ZM13.4717 2V7.24742H16.4717V2H13.4717ZM17.9717 11.7474H41.0283V8.74742H17.9717V11.7474ZM52 0.5H44.0283V3.5H52V0.5ZM44.0283 0.5H14.9717V3.5H44.0283V0.5ZM45.5283 7.24742V2H42.5283V7.24742H45.5283ZM13.4471 56.2619C12.8291 52.7805 13.3364 49.1939 14.8968 46.0156L12.2038 44.6935C10.3629 48.4432 9.7638 52.6765 10.4932 56.7861L13.4471 56.2619ZM14.8968 46.0156C16.4572 42.8372 18.9914 40.2293 22.1378 38.5673L20.7366 35.9146C17.0322 37.8713 14.0447 40.9439 12.2038 44.6935L14.8968 46.0156ZM22.1378 38.5673C25.2844 36.9052 28.8807 36.275 32.411 36.7679L32.8259 33.7967C28.6727 33.2169 24.4409 33.9579 20.7366 35.9146L22.1378 38.5673ZM32.411 36.7679C35.9413 37.2608 39.2224 38.8511 41.7847 41.3092L43.8615 39.1444C40.8424 36.248 36.9791 34.3766 32.8259 33.7967L32.411 36.7679ZM40.5631 35.5156L41.3414 40.46L44.3049 39.9936L43.5266 35.0491L40.5631 35.5156ZM42.5965 38.744L37.5375 39.5172L37.9908 42.4828L43.0497 41.7096L42.5965 38.744ZM45.7543 49.7381C46.3722 53.2195 45.865 56.8061 44.3046 59.9844L46.9976 61.3065C48.8385 57.5568 49.4376 53.3235 48.7082 49.2139L45.7543 49.7381ZM44.3046 59.9844C42.7442 63.1628 40.21 65.7707 37.0636 67.4327L38.4648 70.0854C42.1691 68.1287 45.1567 65.0561 46.9976 61.3065L44.3046 59.9844ZM37.0636 67.4327C33.917 69.0948 30.3207 69.725 26.7903 69.2321L26.3755 72.2033C30.5287 72.7831 34.7605 72.0421 38.4648 70.0854L37.0636 67.4327ZM26.7903 69.2321C23.2601 68.7392 19.9789 67.1489 17.4167 64.6908L15.3398 66.8556C18.359 69.752 22.2223 71.6234 26.3755 72.2033L26.7903 69.2321ZM18.6383 70.4844L17.86 65.54L14.8965 66.0064L15.6748 70.9509L18.6383 70.4844ZM16.6049 67.256L21.6639 66.4828L21.2106 63.5172L16.1516 64.2904L16.6049 67.256ZM41.0283 11.7474C43.5136 11.7474 45.5283 9.73271 45.5283 7.24742H42.5283C42.5283 8.07585 41.8567 8.74742 41.0283 8.74742V11.7474ZM13.4717 7.24742C13.4717 9.7327 15.4864 11.7474 17.9717 11.7474V8.74742C17.1433 8.74742 16.4717 8.07585 16.4717 7.24742H13.4717ZM58.5 7C58.5 3.41015 55.5898 0.5 52 0.5V3.5C53.933 3.5 55.5 5.067 55.5 7H58.5ZM52 103.5C55.5899 103.5 58.5 100.59 58.5 97H55.5C55.5 98.933 53.933 100.5 52 100.5V103.5ZM7 100.5C5.067 100.5 3.5 98.933 3.5 97H0.5C0.5 100.59 3.41015 103.5 7 103.5V100.5ZM3.5 7C3.5 5.067 5.067 3.5 7 3.5V0.5C3.41014 0.5 0.5 3.41015 0.5 7H3.5Z" fill="#1B3CC8"/>
</svg>
