<svg width="41" height="47" viewBox="0 0 41 47" fill="none" xmlns="http://www.w3.org/2000/svg">
<path d="M16.062 41.9716V37.4278M24.5118 37.4278V41.9716M9.23882 18.5921H6.94938C6.29222 18.5921 5.75949 19.1332 5.75949 19.8007V24.7041C5.75949 25.3716 6.29222 25.9127 6.94938 25.9127H9.23882M31.2219 25.9127H33.5114C34.1685 25.9127 34.7012 25.3716 34.7012 24.7041V19.8007C34.7012 19.1332 34.1685 18.5921 33.5114 18.5921H31.2219M6.87369 1.00029H1.58248C1.26072 1.00029 1 1.26519 1 1.59194V6.96633M39.25 6.96636V1.59189C39.25 1.26506 38.9892 1.00024 38.6675 1.00024H33.3764M33.3763 46.0002H38.6675C38.9893 46.0002 39.25 45.7353 39.25 45.4086V40.0342M1.00007 40.0341V45.4086C1.00007 45.7354 1.26086 46.0002 1.58255 46.0002H6.87368M20.2869 7.49527V10.2669M20.2869 14.0585V16.8302M20.2869 20.4127V23.1843M22.0266 18.7477H24.7553M28.1919 18.7477H31.0211M20.2869 27.1264V29.8981M20.2869 33.7917V36.5633M9.72578 18.7477H12.4545M15.6752 18.7477H18.5043M20.2869 5.62109C13.8108 5.62109 10.6443 10.8564 9.60918 14.2217C9.40873 14.8734 9.35186 15.5572 9.35186 16.239V27.7925C9.35186 28.4922 9.41114 29.1935 9.62479 29.8598C10.6759 33.1381 13.843 38.1851 20.2869 38.1851C26.7307 38.1851 29.8979 33.1381 30.949 29.8598C31.1626 29.1935 31.2219 28.4922 31.2219 27.7924V16.239C31.2219 15.5572 31.165 14.8734 30.9646 14.2217C29.9295 10.8564 26.7629 5.62109 20.2869 5.62109Z" stroke="#1B3CC8" stroke-width="2" stroke-linecap="round"/>
</svg>
