<svg width="41" height="47" viewBox="0 0 41 47" fill="none" xmlns="http://www.w3.org/2000/svg">
<path d="M38.25 46.0002C38.25 46.5525 38.6977 47.0002 39.25 47.0002C39.8023 47.0002 40.25 46.5525 40.25 46.0002H38.25ZM32.6216 23.1851C32.2583 22.7691 31.6266 22.7264 31.2106 23.0897C30.7946 23.453 30.7519 24.0847 31.1152 24.5007L32.6216 23.1851ZM30.3517 45.8696C30.7842 46.2131 31.4132 46.141 31.7567 45.7085C32.1002 45.276 32.0281 44.647 31.5956 44.3035L30.3517 45.8696ZM28.2895 37.0916L29.2525 37.361C29.3427 37.0386 29.2656 36.6924 29.047 36.4388L28.2895 37.0916ZM33.3531 37.7506C33.7171 38.166 34.3489 38.2077 34.7643 37.8438C35.1797 37.4798 35.2214 36.848 34.8574 36.4326L33.3531 37.7506ZM29.1842 31.475L28.4321 32.134H28.4321L29.1842 31.475ZM18.4474 6.62461C17.8951 6.62461 17.4474 7.07232 17.4474 7.62461C17.4474 8.17689 17.8951 8.62461 18.4474 8.62461V6.62461ZM9.1579 18.5891C9.1579 18.0368 8.71018 17.5891 8.15789 17.5891C7.60561 17.5891 7.15789 18.0368 7.15789 18.5891H9.1579ZM19.4474 19.7312C19.4474 19.1789 18.9997 18.7312 18.4474 18.7312C17.8951 18.7312 17.4474 19.1789 17.4474 19.7312H19.4474ZM18.4474 25.4419L17.8846 26.2685C18.2242 26.4997 18.6706 26.4997 19.0101 26.2685L18.4474 25.4419ZM16.3259 22.7878C15.8694 22.477 15.2473 22.5952 14.9365 23.0517C14.6257 23.5082 14.7439 24.1303 15.2004 24.4411L16.3259 22.7878ZM21.6943 24.4411C22.1509 24.1303 22.269 23.5082 21.9582 23.0517C21.6474 22.5952 21.0253 22.477 20.5688 22.7878L21.6943 24.4411ZM14.8684 26.7261C14.3161 26.7261 13.8684 27.1738 13.8684 27.7261C13.8684 28.2784 14.3161 28.7261 14.8684 28.7261V26.7261ZM22.0263 28.7261C22.5786 28.7261 23.0263 28.2784 23.0263 27.7261C23.0263 27.1738 22.5786 26.7261 22.0263 26.7261V28.7261ZM4.13323 11.2218C3.72294 11.5915 3.69003 12.2238 4.05973 12.6341C4.42943 13.0444 5.06174 13.0773 5.47203 12.7076L4.13323 11.2218ZM27.1438 29.1462L27.8959 28.4872L27.1438 29.1462ZM26.9776 44.9166L26.9866 45.9166L26.9776 44.9166ZM34.3137 26.6426L33.5605 27.3004L34.3137 26.6426ZM40.25 46.0002V39.7989H38.25V46.0002H40.25ZM35.0668 25.9848L32.6216 23.1851L31.1152 24.5007L33.5605 27.3004L35.0668 25.9848ZM31.5956 44.3035C30.4083 43.3604 28.3334 40.6461 29.2525 37.361L27.3265 36.8222C26.0982 41.2123 28.8549 44.6807 30.3517 45.8696L31.5956 44.3035ZM29.047 36.4388L24.651 31.3374L23.1359 32.643L27.5319 37.7444L29.047 36.4388ZM26.3916 29.8052L28.4321 32.134L29.9364 30.816L27.8959 28.4872L26.3916 29.8052ZM28.4321 32.134L33.3531 37.7506L34.8574 36.4326L29.9364 30.816L28.4321 32.134ZM28.1842 10.6246V31.475H30.1842V10.6246H28.1842ZM11.194 46.0592L26.9866 45.9166L26.9686 43.9167L11.1759 44.0593L11.194 46.0592ZM18.4474 8.62461H26.1842V6.62461H18.4474V8.62461ZM7.15789 18.5891V42.0593H9.1579V18.5891H7.15789ZM4 2.00024H13.6579V0.000244141H4V2.00024ZM15.6579 4.00024V13.7617H17.6579V4.00024H15.6579ZM13.6579 15.7617H4V17.7617H13.6579V15.7617ZM2 13.7617V4.00025H0V13.7617H2ZM17.4474 19.7312V25.4419H19.4474V19.7312H17.4474ZM19.0101 24.6152L16.3259 22.7878L15.2004 24.4411L17.8846 26.2685L19.0101 24.6152ZM19.0101 26.2685L21.6943 24.4411L20.5688 22.7878L17.8846 24.6152L19.0101 26.2685ZM14.8684 28.7261H22.0263V26.7261H14.8684V28.7261ZM5.47203 12.7076L5.5938 12.5979L4.255 11.1121L4.13323 11.2218L5.47203 12.7076ZM5.5938 12.5979C7.2801 11.0784 9.85306 11.1173 11.4927 12.687L12.8758 11.2424C10.4796 8.94834 6.71941 8.89151 4.255 11.1121L5.5938 12.5979ZM6.9043 5.08861C5.82072 6.08451 5.82072 7.79415 6.9043 8.79005L8.25768 7.31751C8.03626 7.11401 8.03626 6.76465 8.25768 6.56115L6.9043 5.08861ZM8.25768 6.56115C8.45421 6.38053 8.75632 6.38053 8.95284 6.56115L10.3062 5.08861C9.3445 4.20471 7.86603 4.20471 6.9043 5.08861L8.25768 6.56115ZM4 15.7617C2.89543 15.7617 2 14.8662 2 13.7617H0C0 15.9708 1.79086 17.7617 4 17.7617V15.7617ZM30.1842 10.6246C30.1842 8.41547 28.3934 6.62461 26.1842 6.62461V8.62461C27.2888 8.62461 28.1842 9.52004 28.1842 10.6246H30.1842ZM11.1759 44.0593C10.0644 44.0693 9.1579 43.171 9.1579 42.0593H7.15789C7.15789 44.2826 8.97084 46.0792 11.194 46.0592L11.1759 44.0593ZM15.6579 13.7617C15.6579 14.8662 14.7625 15.7617 13.6579 15.7617V17.7617C15.867 17.7617 17.6579 15.9708 17.6579 13.7617H15.6579ZM25.5231 29.4114C25.8558 29.4114 26.1724 29.5549 26.3916 29.8052L27.8959 28.4872C27.2969 27.8035 26.4321 27.4114 25.5231 27.4114V29.4114ZM4 0.000244141C1.79086 0.000244141 0 1.79111 0 4.00025H2C2 2.89568 2.89543 2.00024 4 2.00024V0.000244141ZM6.9043 8.79005C7.86603 9.67395 9.3445 9.67395 10.3062 8.79005L8.95284 7.31751C8.75632 7.49813 8.45421 7.49813 8.25768 7.31751L6.9043 8.79005ZM24.651 31.3374C24.4696 31.1269 24.3684 30.8545 24.3684 30.5738H22.3684C22.3684 31.3309 22.6399 32.0674 23.1359 32.643L24.651 31.3374ZM13.6579 2.00024C14.7625 2.00024 15.6579 2.89567 15.6579 4.00024H17.6579C17.6579 1.79111 15.867 0.000244141 13.6579 0.000244141V2.00024ZM10.3062 8.79005C11.3898 7.79415 11.3898 6.08451 10.3062 5.08861L8.95284 6.56115C9.17427 6.76465 9.17427 7.11401 8.95284 7.31751L10.3062 8.79005ZM24.3684 30.5738C24.3684 29.9314 24.89 29.4114 25.5231 29.4114V27.4114C23.7762 27.4114 22.3684 28.8362 22.3684 30.5738H24.3684ZM26.9866 45.9166C28.6957 45.9012 30.073 44.5114 30.073 42.8023H28.073C28.073 43.4138 27.5801 43.9112 26.9686 43.9167L26.9866 45.9166ZM40.25 39.7989C40.25 34.7188 38.4085 29.811 35.0668 25.9848L33.5605 27.3004C36.5839 30.7622 38.25 35.2026 38.25 39.7989H40.25Z" fill="#1B3CC8"/>
</svg>
