<svg width="89" height="104" viewBox="0 0 89 104" fill="none" xmlns="http://www.w3.org/2000/svg">
<path d="M35.4711 93.0474V82.95M54.2484 82.95V93.0474M20.3085 41.093H15.2208C13.7605 41.093 12.5767 42.2955 12.5767 43.7788V54.6752C12.5767 56.1585 13.7605 57.361 15.2208 57.361H20.3085M69.1598 57.361H74.2475C75.7078 57.361 76.8917 56.1585 76.8917 54.6752V43.7788C76.8917 42.2955 75.7078 41.093 74.2475 41.093H69.1598M15.0526 2.00011H3.2944C2.57937 2.00011 2.00001 2.58877 2.00001 3.31487V15.258M87 15.258V3.31476C87 2.58849 86.4204 2 85.7056 2H73.9475M73.9473 102H85.7056C86.4206 102 87 101.411 87 100.685V88.7421M2.00016 88.742V100.685C2.00016 101.412 2.5797 102 3.29455 102H15.0526M44.8598 16.4334V22.5926M44.8598 31.0185V37.1777M44.8598 45.1388V51.298M48.7257 41.4387H54.7895M62.4265 41.4387H68.7135M44.8598 60.0582V66.2174M44.8598 74.8699V81.0291M21.3906 41.4387H27.4544M34.6115 41.4387H40.8985M44.8597 12.2685C29.6654 12.2685 22.6693 25.2373 20.7902 32.5914C20.6214 33.252 20.5597 33.9288 20.5597 34.6106V62.8247C20.5597 63.5244 20.6245 64.2192 20.8036 64.8956C22.7024 72.065 29.7013 84.6329 44.8597 84.6329C60.0182 84.6329 67.0171 72.065 68.9159 64.8956C69.0951 64.2192 69.1598 63.5244 69.1598 62.8247V34.6106C69.1598 33.9288 69.0981 33.252 68.9293 32.5914C67.0502 25.2373 60.0541 12.2685 44.8597 12.2685Z" stroke="white" stroke-width="3" stroke-linecap="round"/>
</svg>
