<svg width="269" height="40" viewBox="0 0 269 40" fill="none" xmlns="http://www.w3.org/2000/svg">
<path d="M155.013 9.65805H150.226V2.56403H143.816V9.65805H139.97V14.017H143.902V26.1538C143.902 31.8803 145.611 33.3332 151.167 33.3332C152.62 33.3332 153.303 33.2478 155.098 33.1623V28.2905C154.414 28.376 153.816 28.376 153.132 28.376C150.397 28.376 150.312 27.3503 150.312 25.0427V14.017H155.098L155.013 9.65805ZM168.773 9.2307C168.346 9.14523 167.833 9.05976 167.406 9.05976C164.158 8.97429 161.081 10.9401 159.799 13.9316V9.65805H153.645V32.9914H160.141V22.3076C160.141 18.0341 161.85 14.8717 166.295 14.8717C167.149 14.8717 168.004 14.9572 168.773 15.1281V9.2307ZM188.517 32.9914C187.662 31.0256 187.662 28.8033 187.662 26.6666V16.5811C187.662 10.0854 182.192 8.97429 177.406 8.97429C170.654 8.97429 166.893 11.6239 166.551 16.8375H172.62C173.047 14.188 174.329 13.2478 177.235 13.2478C180.141 13.2478 181.508 14.2734 181.508 16.4102C181.508 18.2905 179.97 18.6324 175.782 19.2307C171.167 19.829 165.526 20.5127 165.526 26.6666C165.526 31.0256 168.688 33.7606 173.902 33.7606C176.722 33.8461 179.457 32.735 181.508 30.8546C181.508 31.6238 181.679 32.3931 181.936 33.0768L188.517 32.9914ZM181.508 21.6239V24.2734C181.508 27.6068 179.115 29.4871 175.782 29.4871C173.56 29.4871 172.192 28.2905 172.192 26.3247C172.192 23.5042 174.671 23.1623 176.893 22.8204C178.602 22.6495 179.97 22.564 181.508 21.6239ZM210.654 24.017H204.414C203.902 27.0939 202.192 28.7179 199.372 28.7179C195.953 28.7179 193.902 26.0683 193.902 21.3674C193.902 16.5811 195.953 13.7606 199.457 13.7606C201.936 13.7606 203.645 15.2136 204.072 17.7777H210.397C209.884 12.3076 205.696 8.97429 199.372 8.97429C192.107 8.97429 187.32 13.9316 187.32 21.5384C187.32 28.8033 192.021 33.5897 199.286 33.5897C205.611 33.5897 209.799 30.0854 210.654 24.017ZM232.619 9.65805H225.013L216.722 18.0341V0.769165H210.397V32.9914H216.722V25.0427L219.372 22.564L225.867 32.9059H233.731L223.816 18.2051L232.619 9.65805ZM253.474 25.8119H247.32C246.38 28.205 244.927 29.2307 242.534 29.2307C239.115 29.2307 237.149 27.0939 237.064 22.9914H253.902V22.3931C253.902 14.188 249.372 9.05976 242.278 9.05976C235.44 9.05976 230.483 14.2734 230.483 21.5384C230.483 28.8888 235.269 33.7606 242.534 33.7606C247.748 33.6751 252.021 30.8546 253.474 25.8119ZM247.235 18.8888H236.978C237.32 15.6409 239.372 13.6751 242.192 13.6751C245.44 13.6751 246.978 16.0683 247.235 18.8888ZM268.175 9.2307C267.748 9.14523 267.235 9.05976 266.807 9.05976C263.56 8.97429 260.483 10.9401 259.201 13.9316V9.65805H253.047V32.9914H259.543V22.3076C259.543 18.0341 261.252 14.8717 265.696 14.8717C266.551 14.8717 267.406 14.9572 268.175 15.1281V9.2307Z" fill="white"/>
<path d="M103.218 39.2307H97.8333C97.3204 39.2307 96.9786 38.8888 96.9786 38.376V31.7948C96.9786 31.5384 97.064 31.3674 97.235 31.1965C97.4059 31.0255 97.6623 30.9401 97.8333 30.9401H98.2606C98.688 30.9401 98.688 30.9401 99.7136 30.9401C101.679 30.9401 102.021 30.5982 102.021 29.9999C102.021 29.7435 101.936 29.5725 101.85 29.3161L100.996 26.923C98.9444 31.0255 94.0726 32.9059 89.7136 32.9059C81.9358 32.9059 76.7222 28.1196 76.7222 20.9401C76.7222 13.6751 82.1068 8.46145 89.4572 8.46145C91.3375 8.37598 93.2179 8.80332 94.9273 9.48708C94.9273 9.40161 95.0128 9.40162 95.0128 9.31615C95.1837 9.05974 95.4401 8.97426 95.6965 8.97426H104.414C104.756 8.97426 105.098 9.23068 105.269 9.57256L107.662 18.1196C107.748 18.4614 107.833 18.7178 107.919 19.0597C108.004 18.6324 108.09 18.2905 108.261 17.8631L110.654 9.57256C110.739 9.23068 111.081 8.97426 111.508 8.97426H119.97C120.226 8.97426 120.483 9.14521 120.654 9.31615C120.739 9.40162 120.739 9.48709 120.739 9.57256C122.534 8.80333 124.414 8.37598 126.38 8.37598C134.073 8.37598 139.115 13.5896 139.115 21.7093V22.3076C139.115 22.8204 138.773 23.1623 138.261 23.1623H123.389C123.645 24.5298 124.5 25.7264 126.637 25.7264C127.748 25.8119 128.859 25.299 129.372 24.3589C129.543 24.1025 129.799 23.9315 130.141 23.9315H137.833C138.09 23.9315 138.346 24.017 138.517 24.2734C138.688 24.4443 138.773 24.7862 138.688 25.0426C137.235 30.3418 131.594 32.7349 126.722 32.7349C121.252 32.7349 116.979 30.3418 114.927 26.3247L112.876 32.0512C110.996 37.4358 108.517 39.2307 103.218 39.2307ZM98.688 37.5213H103.218C107.833 37.5213 109.543 36.2392 111.252 31.6238L114.073 23.6751C114.158 23.3332 114.5 23.0768 114.927 23.0768C115.269 23.0768 115.611 23.3332 115.696 23.7606C116.893 28.376 121.081 31.1965 126.637 31.1965C130.483 31.1965 134.927 29.4871 136.551 25.8119H130.568C129.628 27.0084 128.175 27.7777 126.551 27.6067C123.645 27.6067 121.679 25.7264 121.594 22.4785C121.594 22.2221 121.679 22.0512 121.85 21.8802C122.021 21.7093 122.278 21.6238 122.449 21.6238H137.406C137.32 14.5298 133.132 10.1708 126.38 10.1708C123.987 10.1708 121.765 10.7691 119.885 12.0512C119.543 12.2221 119.201 12.2221 118.859 11.9657C118.602 11.7948 118.432 11.3674 118.602 11.0255L118.688 10.6837H112.107L109.885 18.2905C109.543 19.5725 109.286 20.7691 108.773 23.5042C108.688 23.9315 108.346 24.1879 107.919 24.1879C107.491 24.1879 107.149 23.8461 107.064 23.4187C106.808 21.7948 106.466 20.1708 106.038 18.5469L103.816 10.6837H96.8931V10.7691C96.9786 11.111 96.8931 11.4529 96.6367 11.7093C96.3803 11.9657 95.9529 11.9657 95.611 11.7948C93.7307 10.6837 91.594 10.0854 89.3717 10.0854C82.9615 10.1708 78.4316 14.6153 78.4316 20.8546C78.4316 27.9486 84.1581 31.111 89.7136 31.111C93.5598 31.111 98.0042 29.4016 99.6281 25.7264H93.5598C92.6196 26.923 91.1666 27.6922 89.5427 27.5213C86.6367 27.5213 84.6709 25.6409 84.5854 22.3931C84.5854 22.1367 84.6709 21.9657 84.8418 21.7948C85.0128 21.6238 85.2692 21.5384 85.4401 21.5384H100.226C100.568 21.5384 100.91 21.7948 100.996 22.1366L103.389 28.7178C103.56 29.0597 103.645 29.5725 103.731 29.9999C103.731 32.6495 100.825 32.6495 99.7136 32.6495C99.1153 32.6495 98.8589 32.6495 98.688 32.6495V37.5213ZM86.4657 23.2478C86.7222 24.6153 87.5769 25.8119 89.7136 25.8119C90.8247 25.8973 91.9358 25.3845 92.4487 24.4443C92.6196 24.1879 92.876 24.017 93.2179 24.017H100.055L99.7991 23.2478H86.4657ZM130.226 19.1452H122.449C122.192 19.1452 121.936 19.0597 121.765 18.8033C121.594 18.5469 121.508 18.376 121.594 18.1196C122.192 14.5298 124.5 13.7606 126.38 13.7606C129.03 13.7606 130.739 15.3845 130.996 18.205C130.996 18.4614 130.91 18.7178 130.739 18.8888C130.654 19.0597 130.483 19.1452 130.226 19.1452ZM123.56 17.4358H129.201C128.859 16.1537 127.919 15.47 126.466 15.47C124.927 15.47 123.987 16.0683 123.56 17.4358ZM93.3034 19.1452H85.5256C85.2692 19.1452 85.0128 19.0597 84.8418 18.8033C84.6709 18.5469 84.5854 18.376 84.6709 18.1196C85.2692 14.5298 87.6623 13.7606 89.4572 13.7606C92.1068 13.7606 93.8162 15.3845 94.0726 18.205C94.0726 18.4614 93.9871 18.7178 93.8162 18.8888C93.7307 19.0597 93.5598 19.1452 93.3034 19.1452ZM86.6367 17.4358H92.2777C91.9358 16.1537 90.9957 15.47 89.5427 15.47C88.0042 15.47 87.064 16.0683 86.6367 17.4358Z" fill="white"/>
<path d="M1.13188 19.999C1.1888 19.8959 1.25626 19.7759 1.33444 19.6405C1.63751 19.1153 2.10114 18.358 2.73517 17.4457C4.00404 15.6201 5.95048 13.1811 8.652 10.7423C14.0464 5.8723 22.4502 1 34.5339 1C46.701 1 55.1459 5.87384 60.5598 10.7435C63.2712 13.1823 65.2224 15.6211 66.4936 17.4465C67.1288 18.3586 67.5929 19.1158 67.8962 19.6409C67.9746 19.7766 68.0423 19.8967 68.0993 20C68.0423 20.1032 67.9746 20.2234 67.8962 20.3591C67.5929 20.8842 67.1288 21.6414 66.4936 22.5535C65.2224 24.3789 63.2712 26.8177 60.5598 29.2565C55.1462 34.1259 46.7021 38.9994 34.5362 39C22.4509 38.959 14.046 34.0859 8.65123 29.2258C5.94952 26.7918 4.00305 24.3604 2.73424 22.5412C2.10023 21.6322 1.63663 20.8777 1.3336 20.3547C1.2558 20.2204 1.18862 20.1014 1.13188 19.999Z" stroke="white" stroke-width="2"/>
<path d="M34.6155 1.76929C44.7022 1.76929 52.8463 9.89593 52.8463 20.0001C52.8463 30.1042 44.7022 38.2308 34.6155 38.2308C24.5289 38.2308 16.3848 30.1042 16.3848 20.0001C16.3848 9.89593 24.5289 1.76929 34.6155 1.76929Z" stroke="white" stroke-width="2"/>
<path d="M33.8462 0.769287H36.1539V39.2308H33.8462V0.769287Z" fill="white"/>
<path d="M34.6153 25.3846C37.5892 25.3846 39.9999 22.9738 39.9999 20C39.9999 17.0261 37.5892 14.6154 34.6153 14.6154C31.6415 14.6154 29.2307 17.0261 29.2307 20C29.2307 22.9738 31.6415 25.3846 34.6153 25.3846Z" fill="white"/>
</svg>
