<svg width="52" height="30" viewBox="0 0 52 30" fill="none" xmlns="http://www.w3.org/2000/svg">
<path d="M1.13535 14.999C1.16063 14.9542 1.18796 14.9063 1.21736 14.8553C1.44152 14.4669 1.78552 13.9048 2.25667 13.227C3.19974 11.8701 4.64731 10.0561 6.65653 8.24227C10.6663 4.6223 16.9117 1 25.9005 1C34.9522 1 41.2284 4.62384 45.2526 8.24349C47.2692 10.0573 48.7203 11.8711 49.665 13.2277C50.137 13.9055 50.4814 14.4674 50.7057 14.8557C50.7353 14.9069 50.7627 14.955 50.7881 15C50.7627 15.045 50.7353 15.0931 50.7057 15.1443C50.4814 15.5326 50.137 16.0945 49.665 16.7723C48.7203 18.1289 47.2692 19.9427 45.2526 21.7565C41.2287 25.3759 34.9529 28.9996 25.9021 29C16.9122 28.9693 10.6658 25.3462 6.65576 21.7336C4.64635 19.9233 3.19875 18.115 2.25574 16.7629C1.78462 16.0874 1.44064 15.5275 1.21652 15.1407C1.18744 15.0905 1.16039 15.0432 1.13535 14.999Z" stroke="white" stroke-width="2"/>
<path d="M25.9617 1.57692C33.3887 1.57692 39.3847 7.56013 39.3847 15C39.3847 22.4399 33.3887 28.4231 25.9617 28.4231C18.5346 28.4231 12.5386 22.4399 12.5386 15C12.5386 7.56013 18.5346 1.57692 25.9617 1.57692Z" stroke="white" stroke-width="2"/>
<path d="M25.3848 0.576923H27.1155V29.4231H25.3848V0.576923Z" fill="white"/>
<path d="M25.9613 19.0385C28.1917 19.0385 29.9998 17.2304 29.9998 15C29.9998 12.7696 28.1917 10.9615 25.9613 10.9615C23.7309 10.9615 21.9229 12.7696 21.9229 15C21.9229 17.2304 23.7309 19.0385 25.9613 19.0385Z" fill="white"/>
</svg>
