<svg width="105" height="104" viewBox="0 0 105 104" fill="none" xmlns="http://www.w3.org/2000/svg">
<path d="M78.0985 49.644V5C78.0985 3.34315 76.7553 2 75.0985 2H25.418C23.7612 2 22.418 3.34315 22.418 5V8.61339M22.418 43.0306V99C22.418 100.657 23.7612 102 25.418 102H75.0985C76.7553 102 78.0985 100.657 78.0985 99V92.0799M60.4976 55.9598H41.5254M41.5254 43.3282L51.1633 49.644M51.1633 49.644L60.4976 43.3282M51.1633 49.644V29.8479M9.37807 31.3056C9.37807 31.3056 11.3426 29.2003 16.2291 29.2003C21.1157 29.2003 24.2777 31.3056 24.2777 31.3056M103.02 100.947V76.7867C103.02 71.6939 101.172 66.7738 97.8173 62.938L85.7307 49.1173M83.635 98.81C80.4915 96.3165 74.8331 89.0852 77.348 80.1085L67.0514 68.1753C66.258 67.2559 65.8217 66.0759 65.8217 64.8622C65.8217 62.0785 68.0812 59.8039 70.8685 59.8039C72.3226 59.8039 73.7061 60.4303 74.6644 61.5226L79.4437 66.9702L90.97 80.1085M16.8279 24.6316V24.6316C19.196 24.6316 21.1157 22.7119 21.1157 20.3438V19.8039C21.1157 17.4358 19.196 15.5161 16.8279 15.5161V15.5161C14.4598 15.5161 12.5401 17.4358 12.5401 19.8039V20.3438C12.5401 22.7119 14.4598 24.6316 16.8279 24.6316ZM5 39.4759H28.2474C29.9043 39.4759 31.2474 38.1327 31.2474 36.4759V11.6134C31.2474 9.95654 29.9043 8.61339 28.2474 8.61339H5C3.34315 8.61339 2 9.95654 2 11.6134V36.4759C2 38.1327 3.34314 39.4759 5 39.4759Z" stroke="#1B3CC8" stroke-width="3" stroke-linecap="round" stroke-linejoin="round"/>
</svg>
